<mxfile host="app.diagrams.net" modified="2022-02-13T09:04:21.689Z" agent="5.0 (X11; Linux x86_64) AppleWebKit/537.36 (KHTML, like Gecko) Chrome/98.0.4758.80 Safari/537.36" etag="YoN87_5_2ITrNZGeZ0d7" version="16.5.6" type="github">
  <diagram id="vnklMb6K9xhajX5vVGuQ" name="Page-1">
    <mxGraphModel dx="1350" dy="773" grid="1" gridSize="10" guides="1" tooltips="1" connect="1" arrows="1" fold="1" page="1" pageScale="1" pageWidth="827" pageHeight="1169" math="0" shadow="0">
      <root>
        <mxCell id="0" />
        <mxCell id="1" parent="0" />
        <mxCell id="nEsD0mzqJX_XiUVaWvzr-1" value="" style="whiteSpace=wrap;html=1;aspect=fixed;" vertex="1" parent="1">
          <mxGeometry x="100" y="230" width="80" height="80" as="geometry" />
        </mxCell>
        <mxCell id="nEsD0mzqJX_XiUVaWvzr-2" value="" style="whiteSpace=wrap;html=1;aspect=fixed;" vertex="1" parent="1">
          <mxGeometry x="100" y="340" width="80" height="80" as="geometry" />
        </mxCell>
      </root>
    </mxGraphModel>
  </diagram>
</mxfile>
